<?xml version="1.0" encoding="UTF-8"?>
<svg version="1.1" xmlns="http://www.w3.org/2000/svg" width="231" height="250">
<path d="M0 0 C76.23 0 152.46 0 231 0 C231 82.5 231 165 231 250 C154.77 250 78.54 250 0 250 C0 167.5 0 85 0 0 Z " fill="#E5E5E4" transform="translate(0,0)"/>
<path d="M0 0 C76.23 0 152.46 0 231 0 C231 82.5 231 165 231 250 C154.77 250 78.54 250 0 250 C0 167.5 0 85 0 0 Z M77.5859375 20.02734375 C65.93649286 34.51741651 63.8141037 46.97273163 63.65820312 65.015625 C63.41058176 74.66709972 63.41058176 74.66709972 59 79 C58.10164588 84.3901247 58.82359753 87.31133692 61.625 92 C64.14376571 95.54898875 64.14376571 95.54898875 68.375 96.5625 C69.24125 96.376875 70.1075 96.19125 71 96 C71.185625 97.2375 71.37125 98.475 71.5625 99.75 C72.75005436 105.25990297 75.46619689 109.56889941 78.44140625 114.30078125 C80.15748812 117.27274258 81.39135767 119.44531645 80.52880859 122.87182617 C75.27644206 134.3335212 69.8015151 139.68935346 57.97094727 144.09814453 C56.15584007 144.75382769 54.33857187 145.40356393 52.51904297 146.046875 C42.60569504 149.79776764 33.96693203 156.12683322 26 163 C25.21882813 163.62519531 24.43765625 164.25039062 23.6328125 164.89453125 C14.72704864 172.25602966 7.23040342 183.10288479 5.61439514 194.78833008 C5.45969754 197.7782457 5.4191264 200.74442016 5.43359375 203.73828125 C5.42739517 204.82207565 5.42119659 205.90587006 5.41481018 207.02250671 C5.40775151 209.29567574 5.41081624 211.56889689 5.42358398 213.84204102 C5.43753321 217.32078173 5.40321748 220.79687294 5.36523438 224.27539062 C5.36428384 226.49218816 5.36613846 228.70898905 5.37109375 230.92578125 C5.35783554 231.96229324 5.34457733 232.99880524 5.33091736 234.06672668 C5.39961957 239.99468226 5.39961957 239.99468226 8.28930664 245.06713867 C13.33315975 248.66366079 16.89358392 249.2911633 23.07138062 249.26069641 C23.89135894 249.26452196 24.71133727 249.26834751 25.55616343 249.27228898 C28.30752677 249.28261898 31.05868143 249.27862682 33.81005859 249.2746582 C35.78118585 249.2790047 37.75231141 249.28418764 39.72343445 249.29014587 C45.08088659 249.30355443 50.43826827 249.30411243 55.79573393 249.30158257 C60.2664804 249.30051403 64.73721255 249.3053933 69.20795596 249.310188 C79.75485911 249.32128981 90.30172664 249.32171693 100.84863281 249.31567383 C111.73224069 249.30963371 122.61571931 249.32194451 133.49930513 249.3432439 C142.84038727 249.36085299 152.18142825 249.36686231 161.52252638 249.36360615 C167.10288673 249.36179191 172.68315488 249.36444355 178.26350021 249.37832069 C183.51168083 249.39088296 188.75965982 249.38897003 194.0078373 249.37590981 C195.93393967 249.37354091 197.86005616 249.37628987 199.78614235 249.38453293 C202.4158803 249.39497571 205.04493866 249.38691962 207.6746521 249.3742218 C208.43652718 249.38159609 209.19840226 249.38897037 209.98336446 249.39656812 C214.72380833 249.34842805 217.98384757 248.53105917 222 246 C225.69711954 240.91633866 225.43727653 235.73972716 225.3984375 229.703125 C225.40130768 228.71431335 225.40417786 227.72550171 225.40713501 226.70672607 C225.4091715 224.61893134 225.40367074 222.53111734 225.39111328 220.44335938 C225.3751226 217.27429649 225.3909411 214.10652224 225.41015625 210.9375 C225.40817241 208.90103889 225.40432583 206.86457857 225.3984375 204.828125 C225.40754654 203.424487 225.40754654 203.424487 225.4168396 201.99249268 C225.25970965 187.02414945 218.79383902 176.10938944 208.36694336 165.828125 C197.74123526 155.7939695 185.13597979 149.15660392 172 143 C171.05382812 142.54367188 170.10765625 142.08734375 169.1328125 141.6171875 C165.30327975 139.82170165 163.34914495 139 159 139 C158.76539063 138.30648437 158.53078125 137.61296875 158.2890625 136.8984375 C157.05920162 133.85390668 157.05920162 133.85390668 154.7734375 130.9765625 C152.2543163 127.55530629 149.83296045 124.23517849 149 120 C149.93356968 114.94803306 153.11097046 110.76897604 155.97460938 106.61230469 C157.26411775 104.58470628 157.93602518 102.56118413 158.5625 100.25 C160.49329286 95.88472918 162.68962676 95.73927341 167 94 C170.86910197 89.1388206 171.44311957 85.36900227 171.43359375 79.234375 C171.20434737 76.91162394 171.20434737 76.91162394 169.453125 75.50390625 C168 74 168 74 167.92578125 71.85546875 C168.05339844 70.97503906 168.18101562 70.09460938 168.3125 69.1875 C170.89503603 48.37384607 170.89503603 48.37384607 165 29 C161.8016367 25.3456998 158.52762192 22.73761717 154.15234375 20.625 C150.54948574 18.76776464 147.5891763 16.52431082 144.4375 14 C122.95144732 -3.0883226 96.57996328 -0.3101619 77.5859375 20.02734375 Z " fill="#F6F6F6" transform="translate(0,0)"/>
<path d="M0 0 C2.86932917 2.19060683 5.65620108 4.43906202 8.375 6.8125 C10.7467799 8.70992392 12.48077558 9.72431655 15.1875 10.9375 C21.02629123 13.73967323 24.68343638 18.02097021 26.83984375 24.125 C28.50874592 29.40420231 28.56230795 34.37914633 28.4375 39.875 C28.42871826 40.83897705 28.41993652 41.8029541 28.41088867 42.79614258 C28.32717305 48.89505695 27.98884264 54.87747956 27.11328125 60.91796875 C27.21031581 63.72175677 28.22208474 64.17134476 30.1875 66.0625 C31.28990066 71.23459641 30.66475779 75.97077415 28.0625 80.5625 C26.08921095 83.3910673 25.55660759 83.95704069 22.125 84.9375 C19.1114723 85.72515752 19.1114723 85.72515752 18.19921875 87.8984375 C17.5754208 89.59670681 16.97029316 91.30189301 16.37890625 93.01171875 C14.4787854 97.87727412 11.75848952 102.26300735 9.12109375 106.75390625 C7.61460027 109.33168398 6.19583986 111.91889322 4.8125 114.5625 C-2.87997844 128.4244494 -13.53197593 140.05861004 -24.8125 151.0625 C-40.01848863 144.39499716 -51.98784067 122.37079591 -59.48828125 108.44140625 C-60.48361299 106.65333241 -61.53202457 104.89464422 -62.60546875 103.15234375 C-66.31921348 97.0954941 -68.7557029 92.10781402 -69.8125 85.0625 C-70.67875 85.248125 -71.545 85.43375 -72.4375 85.625 C-76.45946829 84.95467195 -76.87800029 84.26830555 -79.1875 81.0625 C-81.98890247 76.37383692 -82.71085412 73.4526247 -81.8125 68.0625 C-81.1525 67.41152344 -80.4925 66.76054688 -79.8125 66.08984375 C-76.66983111 61.33287424 -77.21353075 56.45534251 -77.1875 50.875 C-76.97180886 32.70302151 -72.92670557 18.96830364 -59.84375 5.796875 C-55.06751988 1.30270571 -49.63814463 -1.94595276 -43.8125 -4.9375 C-43.08933594 -5.31777344 -42.36617187 -5.69804688 -41.62109375 -6.08984375 C-28.01329777 -11.86849684 -11.51605291 -8.1662091 0 0 Z " fill="#FDDFB1" transform="translate(140.8125,10.9375)"/>
<path d="M0 0 C2.86932917 2.19060683 5.65620108 4.43906202 8.375 6.8125 C10.7467799 8.70992392 12.48077558 9.72431655 15.1875 10.9375 C20.27820008 13.38064669 23.73916396 16.87545439 26.08862305 22.04541016 C28.10470193 27.85209205 28.72868494 33.1195658 28.6875 39.25 C28.68540527 40.189646 28.68331055 41.12929199 28.68115234 42.09741211 C28.42000978 54.10697984 26.09826869 67.02474422 21.1875 78.0625 C20.8575 78.0625 20.5275 78.0625 20.1875 78.0625 C20.15309814 77.51537354 20.11869629 76.96824707 20.08325195 76.40454102 C18.95419441 59.64022464 17.48868831 43.31778427 6.1875 30.0625 C2.93852926 30.61802349 0.30268014 31.37836514 -2.625 32.875 C-14.59479667 38.27505485 -27.88031176 39.84118208 -40.76342773 41.66796875 C-50.90453822 43.122702 -59.79756078 44.5121226 -66.39453125 53.12890625 C-69.09529435 57.35517243 -70.86192779 61.00162799 -71.12890625 66.07421875 C-71.17080078 66.83154297 -71.21269531 67.58886719 -71.25585938 68.36914062 C-71.29517578 69.15482422 -71.33449219 69.94050781 -71.375 70.75 C-71.41818359 71.54728516 -71.46136719 72.34457031 -71.50585938 73.16601562 C-71.61177368 75.13131447 -71.71262551 77.09688496 -71.8125 79.0625 C-77.47402781 70.57020828 -76.99355747 59.53168697 -77 49.6875 C-77.01224609 48.71039063 -77.02449219 47.73328125 -77.03710938 46.7265625 C-77.06981436 30.33046522 -71.4039433 17.43524375 -59.84375 5.796875 C-55.06751988 1.30270571 -49.63814463 -1.94595276 -43.8125 -4.9375 C-43.08933594 -5.31777344 -42.36617187 -5.69804688 -41.62109375 -6.08984375 C-28.01329777 -11.86849684 -11.51605291 -8.1662091 0 0 Z " fill="#545453" transform="translate(140.8125,10.9375)"/>
<path d="M0 0 C3 1 3 1 4.10546875 2.6796875 C4.46253906 3.40414062 4.81960937 4.12859375 5.1875 4.875 C9.64278372 13.25675039 15.53380959 20.57285125 21.625 27.8125 C22.28943115 28.60285645 22.28943115 28.60285645 22.96728516 29.40917969 C26.14124446 33.1260068 29.51087825 36.57738644 33 40 C36.93233975 38.39724541 39.67391783 35.71012435 42.625 32.75 C43.14843994 32.22567383 43.67187988 31.70134766 44.21118164 31.16113281 C52.93356054 22.17867996 60.50621286 11.23283264 66 0 C70.09819538 1.36606513 71.20138726 4.06187713 73.25 7.625 C73.62640625 8.22957031 74.0028125 8.83414063 74.390625 9.45703125 C76.34227826 12.82219809 77.00882975 14.62834764 76.9140625 18.6171875 C76.00815922 21.96980392 74.88743702 24.51876325 73.125 27.5 C71.1170369 30.93069072 69.40861458 34.3364299 67.85873413 37.99578857 C66.29990631 41.63395832 64.65053772 45.23148595 63.015625 48.8359375 C62.23684928 50.55853504 61.45820796 52.28119334 60.6796875 54.00390625 C59.47235685 56.6739457 58.26423701 59.34361465 57.05371094 62.01220703 C52.64284572 71.73970774 48.32678918 81.48486422 44.30363464 91.37971497 C42.35255113 96.17411992 40.30332114 100.89718385 38.0625 105.5625 C37.60907227 106.5205957 37.60907227 106.5205957 37.14648438 107.49804688 C36.43479339 109.00050562 35.71806438 110.50057681 35 112 C34.34 112 33.68 112 33 112 C32.62875 110.9275 32.2575 109.855 31.875 108.75 C30.51134843 105.08559033 28.85215518 101.6626026 27.0625 98.1875 C24.60570874 93.38337848 22.64842864 88.59318808 20.95703125 83.47265625 C19.9093172 80.76570526 18.50993527 78.47372374 17 76 C16.30522073 74.11417054 15.61221607 72.22764116 14.93359375 70.3359375 C13.86021634 67.65024841 12.57715261 65.13231805 11.25 62.5625 C8.75123902 57.66986431 6.60533316 52.71780134 4.5625 47.625 C-0.66495227 34.56417576 -0.66495227 34.56417576 -7.765625 22.484375 C-9.43958144 19.1152728 -9.07203359 17.58530735 -8 14 C-6.79428358 11.44630797 -5.39744078 9.04058422 -3.9375 6.625 C-3.37192383 5.66400391 -3.37192383 5.66400391 -2.79492188 4.68359375 C-1.87160383 3.11745934 -0.93694607 1.55801966 0 0 Z " fill="#98CFEF" transform="translate(81,121)"/>
<path d="M0 0 C3 1 3 1 4.10546875 2.6796875 C4.46253906 3.40414062 4.81960937 4.12859375 5.1875 4.875 C9.64278372 13.25675039 15.53380959 20.57285125 21.625 27.8125 C22.28943115 28.60285645 22.28943115 28.60285645 22.96728516 29.40917969 C25.32042305 32.1647937 27.7305958 34.68208886 30.3984375 37.13671875 C31.25695312 38.08160156 32.11546875 39.02648437 33 40 C32.58841895 43.62063367 31.2385397 45.00916824 28.4375 47.25 C27.47650391 48.03117187 27.47650391 48.03117187 26.49609375 48.828125 C26.00238281 49.21484375 25.50867188 49.6015625 25 50 C26.15173355 52.46800047 27.04783565 54.04783565 29 56 C29.92716475 64.52509927 28.71051951 72.56631451 26.734375 80.84375 C25.86878195 84.56395844 25.37962108 88.20378919 25 92 C24.70738281 91.4121875 24.41476563 90.824375 24.11328125 90.21875 C23.15299364 88.30491363 22.17215973 86.40141189 21.1875 84.5 C19.50203905 81.14151692 18.04161338 77.73004058 16.625 74.25 C14.95342435 70.16788996 13.14679901 66.23242414 11.125 62.3125 C8.66782873 57.50499099 6.57192637 52.62955634 4.5625 47.625 C-0.66508843 34.56424999 -0.66508843 34.56424999 -7.765625 22.484375 C-9.43958144 19.1152728 -9.07203359 17.58530735 -8 14 C-6.79428358 11.44630797 -5.39744078 9.04058422 -3.9375 6.625 C-3.37192383 5.66400391 -3.37192383 5.66400391 -2.79492188 4.68359375 C-1.87160383 3.11745934 -0.93694607 1.55801966 0 0 Z " fill="#98CFEF" transform="translate(81,121)"/>
<path d="M0 0 C2.54521849 1.11170463 4.24419548 2.57866357 6.2890625 4.453125 C6.99546875 5.09378906 7.701875 5.73445312 8.4296875 6.39453125 C8.96078125 6.88824219 9.491875 7.38195312 10.0390625 7.890625 C9.0390625 10.890625 9.0390625 10.890625 6.96875 12.21875 C4.74828652 13.75291169 4.74828652 13.75291169 4.796875 16.5 C4.91804688 17.53640625 5.03921875 18.5728125 5.1640625 19.640625 C5.28910156 20.79691406 5.41414063 21.95320313 5.54296875 23.14453125 C6.0479665 26.95786073 6.57165163 30.7681819 7.1015625 34.578125 C7.41675443 37.01527837 7.72953403 39.45274588 8.0390625 41.890625 C8.17441406 42.72851562 8.30976562 43.56640625 8.44921875 44.4296875 C9.30394858 53.47428317 3.89038296 61.99885673 0.0390625 69.890625 C-0.6209375 69.890625 -1.2809375 69.890625 -1.9609375 69.890625 C-2.3528125 68.7975 -2.7446875 67.704375 -3.1484375 66.578125 C-4.43569315 63.07530433 -5.99153822 59.79516617 -7.6484375 56.453125 C-11.15801267 48.71297432 -10.34608237 43.34187544 -8.4609375 35.203125 C-6.87476111 28.21332378 -5.76566048 21.02464057 -6.9609375 13.890625 C-8.85531431 11.49867052 -8.85531431 11.49867052 -10.9609375 9.890625 C-9.60241619 6.80368796 -8.11582797 4.80420766 -5.5859375 2.578125 C-4.70808594 1.77955078 -4.70808594 1.77955078 -3.8125 0.96484375 C-1.9609375 -0.109375 -1.9609375 -0.109375 0 0 Z " fill="#686A6B" transform="translate(115.9609375,163.109375)"/>
<path d="M0 0 C2.6875 0 2.6875 0 6 1 C8.1204528 3.42251161 9.53195969 6.14738655 11 9 C11.39574219 9.73863281 11.79148438 10.47726563 12.19921875 11.23828125 C15 16.61381579 15 16.61381579 15 19 C15.99 18.896875 16.98 18.79375 18 18.6875 C23.81076733 18.72264577 27.84955872 21.95008748 31.921875 25.83203125 C40.92800845 35.58867582 44.12072667 46.9551571 44.7890625 60.01953125 C44.91634012 62.97730352 44.91634012 62.97730352 45.6484375 65.69921875 C46 68 46 68 44 71 C41.5 71.3125 41.5 71.3125 39 71 C37 69 37 69 36.8125 66.4375 C37 64 37 64 38 63 C39.04303543 51.18561796 37.12574881 40.56177612 29.81640625 31.0703125 C26.83200914 27.6687416 24.36711318 25.39521961 19.80078125 24.6328125 C15.98626237 24.41844284 13.58850244 24.68613203 10.1875 26.5 C4.83262318 32.61985923 3.36222569 38.43298814 3.5625 46.4375 C3.55186523 47.62956055 3.55186523 47.62956055 3.54101562 48.84570312 C3.59561681 54.00761485 4.50758035 58.25673606 6.35913086 63.07446289 C7 65 7 65 7 68 C8.32 68.66 9.64 69.32 11 70 C11.125 72.375 11.125 72.375 11 75 C9 77 9 77 6.5 77.25 C4 77 4 77 2 75 C1.58656801 72.97303481 1.26654634 70.92645483 1 68.875 C0.4900483 65.17177931 -0.02021732 61.63359332 -1.125 58.0625 C-3.90256091 47.46744912 -2.29610425 37.5221751 3.05078125 28.16015625 C4.73554945 25.49965356 6.55528518 23.00022122 9 21 C9.66 21 10.32 21 11 21 C10.73783691 20.5059668 10.47567383 20.01193359 10.20556641 19.50292969 C9.01155584 17.25221185 7.81827126 15.00110988 6.625 12.75 C6.00625 11.58404297 6.00625 11.58404297 5.375 10.39453125 C4.77558594 9.26337891 4.77558594 9.26337891 4.1640625 8.109375 C3.61419678 7.07248535 3.61419678 7.07248535 3.05322266 6.01464844 C2.01113969 4.02130846 0.99957057 2.01494463 0 0 Z " fill="#CFCECE" transform="translate(159,139)"/>
<path d="M0 0 C0.66 0 1.32 0 2 0 C3.06860995 1.16629452 4.0802998 2.38505932 5.0625 3.625 C11.35519562 11.00354539 18.3739534 15.22893831 28.0546875 16.35546875 C38.69901432 16.98369739 46.92560817 13.94751702 55.2109375 7.19921875 C57.02223745 5.4728874 57.02223745 5.4728874 59 3 C59.66 3.33 60.32 3.66 61 4 C52.32705221 16.808659 43.11313517 28.22025888 32 39 C19.03404088 33.31470249 7.7251983 14.94885862 1 3 C0.67 2.01 0.34 1.02 0 0 Z " fill="#F8C793" transform="translate(84,123)"/>
<path d="M0 0 C-1.6557713 3.66383437 -3.90407265 6.74442735 -6.25 10 C-12.55977608 18.97105942 -17.01034256 28.19820302 -20.23828125 38.69921875 C-21 41 -21 41 -22 42 C-23.10805721 46.31046431 -23.88974527 50.54570872 -24 55 C-21.70817728 57.79197732 -21.70817728 57.79197732 -19 60 C-18.23371127 63.13481753 -18.31211411 65.85619092 -19 69 C-20.9375 72.0625 -20.9375 72.0625 -24 74 C-27.15369971 74.69005003 -29.8519355 74.73568899 -33 74 C-36 71.5625 -36 71.5625 -38 69 C-38.33 68.67 -38.66 68.34 -39 68 C-39.49746408 63.77155535 -39.41753312 60.99766043 -36.8125 57.625 C-33.87861171 54.88670426 -32.80082209 54.54936252 -29 54 C-28.99742188 53.3915625 -28.99484375 52.783125 -28.9921875 52.15625 C-28.30505793 36.5813131 -20.27419893 21.853582 -12 9 C-11.58459961 8.33991943 -11.16919922 7.67983887 -10.74121094 6.99975586 C-7.92040769 2.73914451 -5.48087547 0 0 0 Z " fill="#CECDCD" transform="translate(69,140)"/>
<path d="M0 0 C3.89975365 3.5402019 6.64766582 7.6572511 9.5625 12 C10.52139771 13.4171661 11.48101192 14.83384771 12.44140625 16.25 C12.88500488 16.90742188 13.32860352 17.56484375 13.78564453 18.2421875 C14.75927671 19.65154651 15.79080765 21.02083025 16.83984375 22.375 C18 24 18 24 18 26 C20.64 24.02 23.28 22.04 26 20 C29.34690987 22.84487339 30.79940329 24.61373348 31.4375 29.0234375 C31.57311391 36.56696101 30.48186403 43.52407895 28.734375 50.84375 C27.86878195 54.56395844 27.37962108 58.20378919 27 62 C26.70738281 61.4121875 26.41476563 60.824375 26.11328125 60.21875 C25.15299364 58.30491363 24.17215973 56.40141189 23.1875 54.5 C21.50203905 51.14151692 20.04161338 47.73004058 18.625 44.25 C16.95342435 40.16788996 15.14679901 36.23242414 13.125 32.3125 C10.23176204 26.65311722 7.80544168 20.85904019 5.44775391 14.9621582 C4.17067634 11.779926 2.86367649 8.73483986 1.29296875 5.6796875 C0 3 0 3 0 0 Z " fill="#5BB3E2" transform="translate(79,151)"/>
<path d="M0 0 C0.33 0.66 0.66 1.32 1 2 C0.36863708 3.84037781 0.36863708 3.84037781 -0.67797852 6.04956055 C-1.05391144 6.85702728 -1.42984436 7.66449402 -1.81716919 8.49642944 C-2.20750336 9.32260773 -2.59783752 10.14878601 -3 11 C-3.67864765 12.49972752 -4.35439615 14.00077065 -5.02709961 15.50317383 C-5.73537341 17.07118996 -6.44379338 18.63914007 -7.15234375 20.20703125 C-7.93693878 21.94592302 -8.72144109 23.68485662 -9.50585938 25.42382812 C-10.72042058 28.11602798 -11.93546709 30.80800307 -13.15209961 33.49926758 C-17.57209306 43.27840236 -21.97331851 53.05060905 -26 63 C-26.33 63 -26.66 63 -27 63 C-28.36604223 55.71928554 -29.34575594 48.42571991 -30.125 41.0625 C-30.21249512 40.24612061 -30.29999023 39.42974121 -30.39013672 38.58862305 C-31.3056888 29.66245082 -31.3056888 29.66245082 -31 27 C-29.24730831 24.88738055 -27.24239294 23.63507818 -25 22 C-21.535 23.98 -21.535 23.98 -18 26 C-17.18208984 24.81857422 -17.18208984 24.81857422 -16.34765625 23.61328125 C-10.8984375 15.7421875 -5.44921875 7.87109375 0 0 Z " fill="#59B2E2" transform="translate(151,150)"/>
<path d="M0 0 C2.44432204 1.20276164 4.21148696 2.69125888 6.21875 4.53125 C6.92515625 5.17191406 7.6315625 5.81257812 8.359375 6.47265625 C8.89046875 6.96636719 9.4215625 7.46007812 9.96875 7.96875 C8.68492547 11.82022359 7.41187714 12.8442673 3.96875 14.96875 C-0.05540443 15.71667365 -3.16054878 15.34731575 -6.90625 13.71875 C-9.12366854 11.89264062 -9.85528235 10.53257137 -11.03125 7.96875 C-9.62910066 6.59955716 -8.20896527 5.24876291 -6.78125 3.90625 C-5.59789063 2.77509766 -5.59789063 2.77509766 -4.390625 1.62109375 C-2.03125 -0.03125 -2.03125 -0.03125 0 0 Z " fill="#53575A" transform="translate(116.03125,163.03125)"/>
<path d="M0 0 C5.45454545 0.45454545 5.45454545 0.45454545 8 3 C7.8125 6 7.8125 6 7 9 C4 11 4 11 1.4375 10.8125 C-1 10 -1 10 -3 7 C-2.6758631 3.67759676 -2.39223697 2.39223697 0 0 Z " fill="#B7B7B7" transform="translate(38,199)"/>
<path d="M0 0 C2.5 0.25 2.5 0.25 4.5 2.25 C4.75 4.75 4.75 4.75 4.5 7.25 C2.5 9.25 2.5 9.25 0 9.5 C-2.5 9.25 -2.5 9.25 -4.5 7.25 C-4.75 4.75 -4.75 4.75 -4.5 2.25 C-2.5 0.25 -2.5 0.25 0 0 Z " fill="#727272" transform="translate(165.5,206.75)"/>
<path d="M0 0 C1.2375 0.1546875 1.2375 0.1546875 2.5 0.3125 C4.5 3.3125 4.5 3.3125 4.1875 5.9375 C3.5 8.3125 3.5 8.3125 2.5 9.3125 C0.0625 9.5 0.0625 9.5 -2.5 9.3125 C-4.5 7.3125 -4.5 7.3125 -4.75 4.8125 C-4.40047575 1.3172575 -3.47557682 0.4344471 0 0 Z " fill="#707070" transform="translate(200.5,200.6875)"/>
<path d="M0 0 C1 2 1 2 0.36328125 4.12890625 C0.01652344 4.93199219 -0.33023438 5.73507813 -0.6875 6.5625 C-1.02136719 7.36816406 -1.35523438 8.17382812 -1.69921875 9.00390625 C-3 11 -3 11 -5.14453125 11.77734375 C-6.06298828 11.88755859 -6.06298828 11.88755859 -7 12 C-5.44298069 7.32894208 -2.91552627 3.91294315 0 0 Z " fill="#69BAE6" transform="translate(151,150)"/>
</svg>
